<?xml version="1.0" encoding="UTF-8"?>
<svg width="1422px" height="365px" viewBox="0 0 1422 365" version="1.1" xmlns="http://www.w3.org/2000/svg" xmlns:xlink="http://www.w3.org/1999/xlink">
    <!-- Generator: Sketch 48.2 (47327) - http://www.bohemiancoding.com/sketch -->
    <title>Untitled</title>
    <desc>Created with Sketch.</desc>
    <defs>
        <polygon id="path-1" points="0.738691334 0.440270636 381.844642 0.440270636 381.844642 364.816553 0.738691334 364.816553"></polygon>
    </defs>
    <g id="Page-1" stroke="none" stroke-width="1" fill="none" fill-rule="evenodd">
        <g id="Logo-Copy">
            <polygon id="Fill-1" fill="#FFFFFF" points="0 13 0 356 198 356 198 280.491999 90.0479004 280.491999 90.0479004 13"></polygon>
            <path d="M347.876659,118.988774 L346.962389,118.988774 L309.845133,228.170672 L384.521018,228.170672 L347.876659,118.988774 Z M285.107301,296.405446 L261.283739,356 L166,356 L298.852876,13 L396.900442,13 L527,356 L431.253872,356 L408.806969,296.405446 L285.107301,296.405446 Z" id="Fill-2" fill="#FFFFFF"></path>
            <g id="Group-10" transform="translate(507.000000, 0.000000)">
                <path d="M90.086313,285.506822 L101.511421,285.506822 C128.009285,285.506822 172.797803,286.868693 172.797803,249.245717 C172.797803,208.004948 128.470482,212.09056 99.2263991,212.09056 L90.086313,212.09056 L90.086313,285.506822 Z M90.086313,145.920281 L100.138311,145.920281 C123.900439,145.920281 148.574478,141.845065 148.574478,112.840339 C148.574478,81.5588989 120.703505,79.750002 96.4801806,79.750002 L90.086313,79.750002 L90.086313,145.920281 Z M0.53024053,353.485998 L0.53024053,11.7708263 L128.470482,11.7708263 C189.694384,11.7708263 230.824771,35.3384653 230.824771,100.5939 C230.824771,131.417918 220.772773,156.347428 192.901799,170.392368 L192.901799,171.296817 C242.249879,177.648748 263.265787,210.728689 263.265787,258.310993 C263.265787,329.907963 201.580688,353.485998 138.52248,353.485998 L0.53024053,353.485998 Z" id="Fill-3" fill="#FFFFFF"></path>
                <g id="Group-7" transform="translate(234.679183, 0.000000)">
                    <mask id="mask-2" fill="white">
                        <use xlink:href="#path-1"></use>
                    </mask>
                    <g id="Clip-6"></g>
                    <path d="M93.9633763,176.734943 C93.9633763,235.648842 137.839982,278.708904 191.286426,278.708904 C244.753833,278.708904 288.619957,235.648842 288.619957,176.734943 C288.619957,129.599665 244.753833,86.5499988 191.286426,86.5499988 C137.839982,86.5499988 93.9633763,129.599665 93.9633763,176.734943 M381.844642,176.287917 C381.844642,286.869732 301.87937,364.818632 191.286426,364.818632 C80.7144443,364.818632 0.738691334,286.869732 0.738691334,176.287917 C0.738691334,72.9520844 92.1395518,0.440270636 191.286426,0.440270636 C290.454263,0.440270636 381.844642,72.9520844 381.844642,176.287917" id="Fill-5" fill="#FFFFFF" mask="url(#mask-2)"></path>
                </g>
                <polygon id="Fill-8" fill="#FFFFFF" points="733.991749 219.339662 817.625633 11.7739451 914.948682 11.7739451 767.816356 353.489116 698.353799 353.489116 553.506495 11.7739451 650.829544 11.7739451"></polygon>
            </g>
        </g>
    </g>
</svg>